# xmcd CD database file
#
# Track frame offsets:
#	150
#	7617
#	83775
#	118253
#	169276
#	185722
#
# Disc length: 4275 seconds
#
# Revision: 0
# Processed by: cddbd v1.5.2PL0 Copyright (c) Steve Scherf et al.
# Submitted via: CDex 1.51
#
DISCID=4410b106
DTITLE=The Purple Better One - PB One (1-5) - PB Two (6)
DYEAR=2002
DGENRE=Merengue
TTITLE0=Music Down A Windy Street Pt 1
TTITLE1=King's head That
TTITLE2=Probably Jazz
TTITLE3=Probiscus II - Ladysmith Revealed
TTITLE4=Music Down A Windy Street Pt 2
TTITLE5=Son
EXTD=YEAR: 2002
EXTT0=
EXTT1=
EXTT2=
EXTT3=
EXTT4=
EXTT5=
PLAYORDER=
